# xmcd
#
# Track frame offsets:
#	150
#	17175
#	32195
#	44932
#	56572
#	72405
#	83467
#	98762
#	115647
#	132471
#	142781
#	157341
#
# Disc length: 2309 seconds
#
# Revision: 1
# Processed by: cddbd v1.5.2PL0 Copyright (c) Steve Scherf et al.
# Submitted via: audiograbber 1.83.01
#
DISCID=a709030c
DTITLE=Smoky Mountain Melodys - Combo O Country And Gospel
DYEAR=1900
DGENRE=Gospel
TTITLE0=Someday Soon
TTITLE1=One Of These Days
TTITLE2=Will There Be Any Stars In My Crown
TTITLE3=Mama Never Said So To Daddy
TTITLE4=Satin Sheets
TTITLE5=I Love You
TTITLE6=Coal Miners Daughter
TTITLE7=Take The Ribbon From My Hair
TTITLE8=Just A Closer Walk With Thee
TTITLE9=I Don't Know What I'd Do
TTITLE10=Orner Of Walk And Don't Walk
TTITLE11=I Will Always Love You
EXTD=
EXTT0=
EXTT1=
EXTT2=
EXTT3=
EXTT4=
EXTT5=
EXTT6=
EXTT7=
EXTT8=
EXTT9=
EXTT10=
EXTT11=
PLAYORDER=
